<svg width="24" height="24" fill="none" xmlns="http://www.w3.org/2000/svg"><path d="M24 12.073c0-2.308-.658-4.567-1.894-6.51-1.237-1.943-3-3.489-5.084-4.455a11.934 11.934 0 0 0-6.668-.994 11.965 11.965 0 0 0-6.149 2.78A12.08 12.08 0 0 0 .516 8.571a12.146 12.146 0 0 0-.065 6.783 12.084 12.084 0 0 0 3.58 5.747A11.968 11.968 0 0 0 10.125 24v-8.437H7.078v-3.49h3.047v-2.66c0-3.026 1.792-4.698 4.532-4.698a18.5 18.5 0 0 1 2.687.235v2.972H15.83a1.726 1.726 0 0 0-1.282.344 1.747 1.747 0 0 0-.673 1.543v2.264H17.2l-.532 3.49h-2.8V24a11.981 11.981 0 0 0 7.254-4.082A12.118 12.118 0 0 0 24 12.073z" fill="currentColor"/></svg>