<svg width="24" height="24" fill="none" xmlns="http://www.w3.org/2000/svg"><path d="M12 2.162c3.204 0 3.584.012 4.85.07.76.009 1.513.149 2.227.413.521.193.993.5 1.38.898.399.387.705.859.898 1.38.264.714.404 1.467.413 2.228.058 1.265.07 1.645.07 4.849s-.012 3.584-.07 4.85a6.623 6.623 0 0 1-.413 2.227 3.975 3.975 0 0 1-2.278 2.277 6.623 6.623 0 0 1-2.228.414c-1.265.058-1.645.07-4.849.07s-3.584-.012-4.85-.07a6.623 6.623 0 0 1-2.227-.413 3.709 3.709 0 0 1-1.38-.898 3.709 3.709 0 0 1-.898-1.38 6.624 6.624 0 0 1-.413-2.228c-.058-1.265-.07-1.645-.07-4.849s.012-3.584.07-4.85c.009-.76.149-1.513.413-2.227a3.71 3.71 0 0 1 .898-1.38 3.71 3.71 0 0 1 1.38-.898 6.624 6.624 0 0 1 2.228-.413c1.265-.058 1.645-.07 4.849-.07zM12 0C8.741 0 8.332.014 7.053.072c-.996.02-1.98.209-2.913.557A6.136 6.136 0 0 0 .63 4.145a8.845 8.845 0 0 0-.558 2.913C.014 8.332 0 8.741 0 12c0 3.258.014 3.668.072 4.947.02.996.209 1.98.557 2.913a6.136 6.136 0 0 0 3.516 3.51 8.844 8.844 0 0 0 2.913.558C8.332 23.986 8.741 24 12 24c3.258 0 3.668-.014 4.947-.072a8.844 8.844 0 0 0 2.913-.558 6.134 6.134 0 0 0 3.51-3.515 8.843 8.843 0 0 0 .558-2.913C23.986 15.668 24 15.258 24 12c0-3.259-.014-3.668-.072-4.947a8.844 8.844 0 0 0-.558-2.913A6.135 6.135 0 0 0 19.855.63a8.845 8.845 0 0 0-2.913-.558C15.668.014 15.258 0 12 0z" fill="currentColor"/><path d="M11.998 5.839a6.162 6.162 0 1 0 0 12.324 6.162 6.162 0 0 0 0-12.324zm0 10.162a4 4 0 1 1 0-8 4 4 0 0 1 0 8zM18.407 7.035a1.44 1.44 0 1 0 0-2.88 1.44 1.44 0 0 0 0 2.88z" fill="currentColor"/></svg>